<?xml version="1.0" encoding="UTF-8"?>
<svg width="754px" height="116px" viewBox="0 0 754 116" version="1.1" xmlns="http://www.w3.org/2000/svg" xmlns:xlink="http://www.w3.org/1999/xlink">
    <!-- Generator: Sketch 45.2 (43514) - http://www.bohemiancoding.com/sketch -->
    <title>Group</title>
    <desc>Created with Sketch.</desc>
    <defs></defs>
    <g id="Page-1" stroke="none" stroke-width="1" fill="none" fill-rule="evenodd">
        <g id="Group">
            <g id="jnt" transform="translate(40.000000, 0.000000)" fill-rule="nonzero" fill="#000000">
                <path d="M54.9860833,0.87186431 L66.0967295,0.87186431 C66.3922528,34.2450154 66.3922528,52.2719126 66.0967295,54.9525558 C65.1397734,63.6329503 58.2816195,72.2759368 43.7654187,72.9526319 C31.2215175,73.5373851 19.9941311,63.2366442 19.9941311,54.9525558 C19.9941311,54.2066234 19.9941311,52.5966459 19.9941311,50.1226234 C26.9607871,50.0761963 30.4450587,50.0761963 30.4469458,50.1226234 C30.4469458,50.1226234 30.4469458,54.8970667 30.4469458,54.8970667 C31.5282898,59.7922241 35.2828404,63.8232739 43.7654187,63.8064757 C52.2479971,63.7896773 54.9860833,60.0116566 54.9860833,50.1226234 C54.9860833,50.1226234 54.9860833,33.7057037 54.9860833,0.87186431 Z" id="Path"></path>
                <path d="M76.0374491,16.3467187 L131.667411,90.8538623 L118.518819,90.8538623 C97.0089189,60.4019106 86.2590393,45.7517313 86.2691805,46.9033244 C86.332737,54.1205211 86.2691805,59.3658787 86.2691805,59.3658787 C86.2691805,74.4871648 65.5660732,91.1633665 44.2470015,90.8538623 C23.2971871,90.5497191 -0.24175654,74.0930401 0.383979796,60.4221962 C0.436679721,59.2708288 0.355432315,57.1953793 0.383979796,50.4180262 C0.425963337,50.4735153 9.69836578,50.3755538 9.70116361,50.4180262 C9.70116361,57.5640529 9.70116361,60.4221962 9.70116361,60.4221962 C12.2276794,67.9704211 28.1539398,80.8993957 44.2470015,80.9995818 C60.3400634,81.0997681 73.5409696,68.5246602 76.0374491,59.3658787 C76.0374491,59.3658787 76.0374491,45.0261587 76.0374491,16.3467187 Z" id="Path-Copy"></path>
                <polygon id="Path-Copy" transform="translate(113.256465, 45.772876) rotate(180.000000) translate(-113.256465, -45.772876) " points="87.0733902 0.87186431 150.719485 90.6738883 137.570893 90.6738883 87.0733902 19.8609614 87.6332211 62.1598848 117.313486 62.2220999 117.313486 72.3381262 75.7934459 72.3381262 75.7934459 0.87186431"></polygon>
                <polygon id="Rectangle" points="108.924291 0.87186431 199.266867 0.87186431 199.266867 12.263659 108.924291 12.263659"></polygon>
                <polygon id="Path-Copy" transform="translate(178.508712, 55.047535) scale(-1, 1) rotate(-180.000000) translate(-178.508712, -55.047535) " points="169.934562 19.4211821 169.588467 80.495646 199.268731 80.5578612 199.268731 90.6738874 157.748692 90.6738874 157.748692 19.4211821"></polygon>
            </g>
            <rect id="Rectangle-2" fill="#F44336" x="254" y="20" width="500" height="8"></rect>
            <rect id="Rectangle-2-Copy" fill="#F44336" x="0" y="20" width="80" height="8"></rect>
            <text id="JNT-Technical-Servic" font-family="Arial-Black, Arial Black" font-size="32" font-weight="700" fill="#292929">
                <tspan x="254" y="78">JNT Technical Services Inc.</tspan>
            </text>
            <text id="85-Industrial-Avenue" font-family="Arial-BoldMT, Arial" font-size="20" font-weight="bold" fill="#292929">
                <tspan x="206" y="111">85 Industrial Avenue, Little Ferry, New Jersey USA 07643</tspan>
            </text>
        </g>
    </g>
</svg>